<?xml version="1.0" encoding="UTF-8"?>
<svg width="383px" height="38px" viewBox="0 0 383 38" version="1.1" xmlns="http://www.w3.org/2000/svg" xmlns:xlink="http://www.w3.org/1999/xlink">
    <!-- Generator: Sketch 51.2 (57519) - http://www.bohemiancoding.com/sketch -->
    <title>TEXT</title>
    <desc>Created with Sketch.</desc>
    <defs></defs>
    <g id="Welcome" stroke="none" stroke-width="1" fill="none" fill-rule="evenodd">
        <g id="Desktop" transform="translate(-277.000000, -380.000000)">
            <g id="TEXT" transform="translate(237.000000, 371.000000)">
                <path d="M46.28,10.24 C46.376,9.904 46.904,9.952 47.192,10 C47.48,10.048 47.72,10.288 47.96,10.672 L48.776,12.016 C48.776,12.016 49.304,13.168 50.6,14.992 L51.128,16 C51.704,17.056 52.232,17.584 52.904,18.64 L53.24,19.216 C53.432,19.504 53.96,20.464 54.872,21.952 L56.504,24.448 L57.56,26.272 L58.088,27.136 L59.384,29.344 L59.672,29.728 C60.344,28.864 61.064,27.808 61.64,26.896 C61.928,26.416 62.888,25.072 63.176,24.592 L63.608,24.064 C63.8,23.824 65.432,21.472 65.528,21.28 L66.92,19.072 C67.688,17.872 67.832,17.392 68.696,16.192 C69.224,15.424 69.656,14.8 69.8,14.56 C70.616,13.264 70.424,13.36 71.72,11.344 L72.296,10.288 C72.632,9.856 73.544,9.952 73.592,10.336 C73.64,10.528 73.544,10.72 73.4,11.008 L73.208,11.392 C72.776,12.304 71.912,13.744 71.48,14.32 L70.952,15.28 L69.32,17.92 L68.888,18.4 L68.408,19.216 L67.4,20.992 L66.392,22.48 L66.2,22.72 L64.712,24.928 C64.568,25.264 61.832,29.2 61.688,29.392 L61.112,30.16 C60.824,30.544 60.68,30.88 60.488,31.168 L60.392,34.624 C60.392,35.344 60.44,36.208 60.488,36.832 L60.488,37.696 C60.536,37.552 60.392,39.712 60.488,41.68 C60.584,43.36 60.536,44.176 60.536,45.712 C60.536,46.192 59.288,46.144 59.288,45.76 L59.288,44.704 C59.24,43.696 59.24,41.824 59.24,41.152 C59.192,40.48 59.192,38.608 59.192,37.984 C59.144,37.312 59.144,36.112 59.144,35.536 C59.144,33.712 59.144,31.696 59.048,31.36 C58.904,31.072 58.664,30.736 58.664,30.736 C58.136,30.016 57.32,28.624 56.552,27.28 L55.832,26.176 C55.4,25.408 55.256,24.976 55.016,24.64 L53.672,22.48 C53.432,22.144 53.24,21.76 52.76,21.04 L51.752,19.6 L50.84,18.112 L50.408,17.44 L50.264,17.248 L49.544,16.048 L49.256,15.616 L48.824,14.848 L48.536,14.272 L48.2,13.696 L47.576,12.736 L47.144,11.92 C47.096,11.824 47.048,11.776 47.048,11.776 C46.472,10.864 46.184,10.528 46.28,10.24 Z M86.408,45.712 C84.728,45.184 83.768,44.896 82.568,43.888 C82.232,43.6 82.088,43.168 82.088,42.592 L82.04,40.288 C82.04,39.184 81.944,38.656 82.04,36.784 C82.04,36.88 82.088,35.056 82.04,33.568 L82.04,32.704 C82.04,32.704 81.992,31.456 81.992,31.12 C81.992,31.12 82.088,30.064 81.992,27.376 C81.944,25.024 81.848,23.632 81.992,21.664 C82.04,20.848 81.944,18.88 81.992,17.488 C81.992,17.056 81.944,16.624 81.944,16.192 C81.944,15.136 81.992,14.224 81.944,13.312 C81.944,12.64 82.28,12.256 82.616,12.016 C83.96,11.056 86.168,9.904 88.808,9.76 C89.48,9.712 90.776,9.76 91.448,9.856 C92.696,10 94.088,10.528 95.288,10.912 C96.968,11.44 98.312,12.448 98.84,13.072 C99.656,13.984 100.136,14.32 100.856,15.424 C101,15.616 101.48,16.576 101.624,16.768 C102.152,17.488 102.536,18.208 102.824,19.744 C103.016,21.232 103.256,23.824 103.16,25.312 C103.16,25.312 103.304,28.144 103.256,29.536 L103.256,31.648 C103.256,32.176 103.208,32.656 103.16,33.136 C103.112,33.472 103.112,33.808 103.112,34 C103.112,34.768 103.064,35.536 102.872,36.352 C102.44,38.08 102.008,39.568 101.384,40.624 C100.28,42.352 98.312,44.32 96.008,45.28 C96.008,45.28 94.808,45.76 93.32,46 C92.12,46.144 90.44,46.24 90.392,46.24 C90.344,46.24 89.288,46.24 88.328,46.144 C87.272,46.096 86.408,45.712 86.408,45.712 Z M89.912,11.056 C89.144,11.056 88.376,11.008 87.56,11.296 C87.032,11.488 86.84,11.536 85.544,11.968 C84.728,12.256 84.488,12.448 83.816,12.928 C83.432,13.168 83.24,13.216 83.288,14.032 C83.24,15.904 83.192,17.536 83.24,18.256 C83.336,20.416 83.24,21.664 83.24,21.664 C83.24,22.288 83.24,23.152 83.288,23.824 C83.288,23.824 83.384,26.752 83.336,30.352 C83.336,31.792 83.576,32.752 83.384,34.72 C83.288,35.68 83.384,38.272 83.336,38.848 C83.192,40.24 83.384,40.48 83.384,41.104 L83.384,42.16 C83.384,42.832 83.336,42.832 83.816,43.168 C83.864,43.216 84.152,43.84 86.024,44.272 C87.512,44.608 88.424,44.944 89.816,44.992 C91.736,45.088 93.464,44.8 94.952,44.176 C95.336,44.032 96.008,43.648 96.344,43.552 C97.784,43.072 98.6,41.92 99.56,40.816 C99.992,40.24 100.376,39.28 100.76,38.272 C101.288,36.88 101.672,36.304 101.768,34.72 C101.768,34.72 101.96,32.512 101.864,29.824 C101.912,28.72 101.96,27.616 101.96,26.512 C101.912,24.832 101.864,24.688 101.672,23.056 L101.672,22.768 C101.672,22.72 101.624,21.136 101.624,21.04 C101.48,19.84 101.096,18.544 100.424,17.296 C99.944,16.288 99.224,15.424 98.408,14.656 C97.496,13.792 96.488,13.024 95.624,12.496 C95.576,12.496 94.616,12.016 94.52,12.016 C93.656,11.824 92.6,11.104 89.912,11.056 Z M117.128,24.208 L117.128,26.512 L117.848,25.792 C118.232,25.408 118.952,24.688 119.768,24.016 L121.064,22.768 L121.736,21.952 L123.176,20.512 L124.328,19.408 C124.904,18.832 125.432,18.256 125.864,17.68 L127.496,16 L128.12,15.376 L129.176,14.272 L129.752,13.504 L130.616,12.688 L131.144,12.064 L131.912,11.248 L132.584,10.576 C133.064,10.096 133.112,9.952 133.88,10 C134.216,10 134.504,10.384 134.072,10.864 C133.208,11.68 132.296,12.88 131.96,13.216 L129.992,15.232 C128.696,16.816 128.84,16.672 127.592,17.968 C127.592,17.968 126.344,19.072 125.528,20.128 C124.616,21.232 123.56,22.096 122.216,23.392 C121.976,23.632 120.632,25.12 120.44,25.264 C120.392,25.312 120.2,25.456 120.2,25.456 L119.192,26.368 C118.616,26.848 118.184,27.472 118.184,27.472 C118.184,27.52 118.376,27.712 118.616,27.904 C119.24,28.624 119.96,29.248 120.536,29.824 C120.776,30.064 121.784,31.12 121.784,31.12 L122.456,31.744 L123.368,32.8 C125.144,34.48 126.536,35.776 127.208,36.544 L127.928,37.312 L129.224,38.8 L130.52,40 L132.104,41.584 C133.16,42.784 134.312,43.984 135.272,44.944 C136.088,46 134.696,46.288 134.216,45.712 C134.216,45.712 133.88,45.568 133.064,44.704 L131.912,43.408 C131.528,42.928 131,42.4 130.328,41.728 L129.512,41.008 C128.888,40.336 128.168,39.568 127.256,38.656 L126.344,37.792 L125.096,36.352 L122.744,33.952 L121.976,33.28 L121.304,32.608 C121.256,32.512 120.536,31.696 120.344,31.504 L118.808,30.112 L117.848,29.056 L117.656,28.864 C117.56,28.72 117.368,28.624 117.128,28.384 L117.08,31.216 C117.08,31.312 117.128,31.6 117.128,32.272 C117.128,34.72 117.128,36.928 117.08,38.992 C117.032,40.912 117.032,43.456 117.032,45.52 C117.032,45.856 116.84,46 116.312,46.048 C115.928,46.096 115.64,45.952 115.64,45.52 C115.688,39.52 115.736,39.472 115.736,39.376 L115.736,38.128 C115.784,37.648 115.736,37.264 115.736,36.448 C115.736,35.008 115.784,34.912 115.784,34.816 L115.736,33.232 C115.688,32.272 115.784,28.912 115.736,27.76 L115.688,26.416 C115.64,25.792 115.64,24.448 115.688,23.872 C115.688,23.584 115.736,22.96 115.736,22.72 L115.736,20.944 C115.736,20.8 115.736,20.32 115.784,19.984 L115.784,11.728 C115.784,11.68 115.736,11.488 115.736,11.056 C115.736,10.336 115.736,10 116.408,10 C116.984,10 117.032,10.48 117.08,10.96 C117.128,11.392 117.128,12.016 117.128,12.4 L117.08,15.28 C117.032,16.672 117.08,16.816 117.08,16.96 C117.08,17.296 117.08,18.208 117.128,18.496 L117.128,23.008 C117.08,23.392 117.128,23.68 117.128,24.208 Z M148.088,45.712 C146.408,45.184 145.448,44.896 144.248,43.888 C143.912,43.6 143.768,43.168 143.768,42.592 L143.72,40.288 C143.72,39.184 143.624,38.656 143.72,36.784 C143.72,36.88 143.768,35.056 143.72,33.568 L143.72,32.704 C143.72,32.704 143.672,31.456 143.672,31.12 C143.672,31.12 143.768,30.064 143.672,27.376 C143.624,25.024 143.528,23.632 143.672,21.664 C143.72,20.848 143.624,18.88 143.672,17.488 C143.672,17.056 143.624,16.624 143.624,16.192 C143.624,15.136 143.672,14.224 143.624,13.312 C143.624,12.64 143.96,12.256 144.296,12.016 C145.64,11.056 147.848,9.904 150.488,9.76 C151.16,9.712 152.456,9.76 153.128,9.856 C154.376,10 155.768,10.528 156.968,10.912 C158.648,11.44 159.992,12.448 160.52,13.072 C161.336,13.984 161.816,14.32 162.536,15.424 C162.68,15.616 163.16,16.576 163.304,16.768 C163.832,17.488 164.216,18.208 164.504,19.744 C164.696,21.232 164.936,23.824 164.84,25.312 C164.84,25.312 164.984,28.144 164.936,29.536 L164.936,31.648 C164.936,32.176 164.888,32.656 164.84,33.136 C164.792,33.472 164.792,33.808 164.792,34 C164.792,34.768 164.744,35.536 164.552,36.352 C164.12,38.08 163.688,39.568 163.064,40.624 C161.96,42.352 159.992,44.32 157.688,45.28 C157.688,45.28 156.488,45.76 155,46 C153.8,46.144 152.12,46.24 152.072,46.24 C152.024,46.24 150.968,46.24 150.008,46.144 C148.952,46.096 148.088,45.712 148.088,45.712 Z M151.592,11.056 C150.824,11.056 150.056,11.008 149.24,11.296 C148.712,11.488 148.52,11.536 147.224,11.968 C146.408,12.256 146.168,12.448 145.496,12.928 C145.112,13.168 144.92,13.216 144.968,14.032 C144.92,15.904 144.872,17.536 144.92,18.256 C145.016,20.416 144.92,21.664 144.92,21.664 C144.92,22.288 144.92,23.152 144.968,23.824 C144.968,23.824 145.064,26.752 145.016,30.352 C145.016,31.792 145.256,32.752 145.064,34.72 C144.968,35.68 145.064,38.272 145.016,38.848 C144.872,40.24 145.064,40.48 145.064,41.104 L145.064,42.16 C145.064,42.832 145.016,42.832 145.496,43.168 C145.544,43.216 145.832,43.84 147.704,44.272 C149.192,44.608 150.104,44.944 151.496,44.992 C153.416,45.088 155.144,44.8 156.632,44.176 C157.016,44.032 157.688,43.648 158.024,43.552 C159.464,43.072 160.28,41.92 161.24,40.816 C161.672,40.24 162.056,39.28 162.44,38.272 C162.968,36.88 163.352,36.304 163.448,34.72 C163.448,34.72 163.64,32.512 163.544,29.824 C163.592,28.72 163.64,27.616 163.64,26.512 C163.592,24.832 163.544,24.688 163.352,23.056 L163.352,22.768 C163.352,22.72 163.304,21.136 163.304,21.04 C163.16,19.84 162.776,18.544 162.104,17.296 C161.624,16.288 160.904,15.424 160.088,14.656 C159.176,13.792 158.168,13.024 157.304,12.496 C157.256,12.496 156.296,12.016 156.2,12.016 C155.336,11.824 154.28,11.104 151.592,11.056 Z M199.928,24.208 L199.928,26.512 L200.648,25.792 C201.032,25.408 201.752,24.688 202.568,24.016 L203.864,22.768 L204.536,21.952 L205.976,20.512 L207.128,19.408 C207.704,18.832 208.232,18.256 208.664,17.68 L210.296,16 L210.92,15.376 L211.976,14.272 L212.552,13.504 L213.416,12.688 L213.944,12.064 L214.712,11.248 L215.384,10.576 C215.864,10.096 215.912,9.952 216.68,10 C217.016,10 217.304,10.384 216.872,10.864 C216.008,11.68 215.096,12.88 214.76,13.216 L212.792,15.232 C211.496,16.816 211.64,16.672 210.392,17.968 C210.392,17.968 209.144,19.072 208.328,20.128 C207.416,21.232 206.36,22.096 205.016,23.392 C204.776,23.632 203.432,25.12 203.24,25.264 C203.192,25.312 203,25.456 203,25.456 L201.992,26.368 C201.416,26.848 200.984,27.472 200.984,27.472 C200.984,27.52 201.176,27.712 201.416,27.904 C202.04,28.624 202.76,29.248 203.336,29.824 C203.576,30.064 204.584,31.12 204.584,31.12 L205.256,31.744 L206.168,32.8 C207.944,34.48 209.336,35.776 210.008,36.544 L210.728,37.312 L212.024,38.8 L213.32,40 L214.904,41.584 C215.96,42.784 217.112,43.984 218.072,44.944 C218.888,46 217.496,46.288 217.016,45.712 C217.016,45.712 216.68,45.568 215.864,44.704 L214.712,43.408 C214.328,42.928 213.8,42.4 213.128,41.728 L212.312,41.008 C211.688,40.336 210.968,39.568 210.056,38.656 L209.144,37.792 L207.896,36.352 L205.544,33.952 L204.776,33.28 L204.104,32.608 C204.056,32.512 203.336,31.696 203.144,31.504 L201.608,30.112 L200.648,29.056 L200.456,28.864 C200.36,28.72 200.168,28.624 199.928,28.384 L199.88,31.216 C199.88,31.312 199.928,31.6 199.928,32.272 C199.928,34.72 199.928,36.928 199.88,38.992 C199.832,40.912 199.832,43.456 199.832,45.52 C199.832,45.856 199.64,46 199.112,46.048 C198.728,46.096 198.44,45.952 198.44,45.52 C198.488,39.52 198.536,39.472 198.536,39.376 L198.536,38.128 C198.584,37.648 198.536,37.264 198.536,36.448 C198.536,35.008 198.584,34.912 198.584,34.816 L198.536,33.232 C198.488,32.272 198.584,28.912 198.536,27.76 L198.488,26.416 C198.44,25.792 198.44,24.448 198.488,23.872 C198.488,23.584 198.536,22.96 198.536,22.72 L198.536,20.944 C198.536,20.8 198.536,20.32 198.584,19.984 L198.584,11.728 C198.584,11.68 198.536,11.488 198.536,11.056 C198.536,10.336 198.536,10 199.208,10 C199.784,10 199.832,10.48 199.88,10.96 C199.928,11.392 199.928,12.016 199.928,12.4 L199.88,15.28 C199.832,16.672 199.88,16.816 199.88,16.96 C199.88,17.296 199.88,18.208 199.928,18.496 L199.928,23.008 C199.88,23.392 199.928,23.68 199.928,24.208 Z M247.64,44.272 L247.784,44.752 L248.072,45.616 C248.216,46.144 247.16,46 247.16,46 C246.824,45.952 246.344,44.896 246.152,44.32 L246.056,44.08 L245.912,43.744 C245.816,43.408 245.672,43.024 245.576,42.832 C245.336,42.448 245.192,41.728 245.048,41.248 L244.568,40.192 L244.088,38.944 C243.992,38.464 243.8,37.84 243.608,37.456 C243.32,36.736 243.032,35.92 242.792,34.816 L242.552,33.952 L242.456,33.616 C242.36,33.328 242.216,32.848 242.072,32.56 L241.592,31.12 C241.544,31.072 241.448,30.832 241.448,30.736 L238.952,30.784 C238.232,30.784 237.464,30.736 236.696,30.736 C235.64,30.88 233.816,30.688 233.816,30.688 C231.8,30.688 229.976,30.832 228.632,30.688 L228.056,31.936 C228.008,32.128 227.864,32.416 227.816,32.56 L227.288,33.904 L226.184,36.592 L225.272,38.416 L224.84,39.616 L223.592,42.64 L223.4,43.024 L223.208,43.36 L222.056,45.76 C221.48,46.72 220.424,46.096 220.616,45.52 C220.664,45.424 220.664,45.376 220.664,45.328 L220.856,44.944 L221.048,44.608 L222.2,42.352 L222.632,41.344 C223.016,40.432 223.496,39.28 223.832,38.368 L225.368,34.768 L225.704,33.952 C225.992,33.232 226.328,32.56 226.568,31.936 C226.568,31.936 226.76,31.456 226.808,31.312 L227.144,30.256 L228.44,26.944 L229.976,23.44 L230.552,21.664 L230.744,21.04 L232.904,15.184 C233.384,13.792 233.96,12.112 234.2,11.344 C234.44,10.528 234.776,9.952 235.4,9.952 C235.736,9.952 235.784,10.096 235.928,10.288 L236.024,10.48 C236.216,10.912 236.552,11.68 236.984,13.168 L238.328,16.912 L239.048,18.784 C239.24,19.216 239.384,19.84 239.48,20.224 L239.576,20.512 L239.864,21.472 L240.344,23.008 C240.488,23.536 240.68,24.064 240.872,24.592 L241.448,26.176 L242.168,28.24 L243.416,32.272 L244.136,34.48 C244.28,35.152 244.616,36.112 244.952,36.976 C244.952,37.072 245.096,37.36 245.144,37.456 C245.432,38.128 245.72,38.896 245.864,39.376 L247.64,44.272 Z M237.032,17.296 C236.84,16.336 236.504,15.424 236.072,14.416 L235.64,13.36 L235.304,12.112 C235.112,12.784 234.776,13.6 234.584,14.272 C233.912,16.432 233.096,18.736 232.568,20.272 C232.472,20.56 232.232,21.184 232.232,21.184 L230.984,24.688 C230.504,25.792 230.216,26.224 229.976,26.992 C229.88,27.184 229.736,27.568 229.736,27.664 L229.544,28.192 C229.352,28.624 229.112,29.056 228.968,29.44 L229.736,29.44 C229.928,29.44 232.52,29.488 232.712,29.488 L235.064,29.44 C236.696,29.488 237.608,29.536 238.472,29.536 C239.192,29.536 239.96,29.44 241.064,29.392 L240.104,26.704 L239.912,25.888 L239.72,25.312 C239.24,23.536 238.328,20.848 237.704,19.216 L237.512,18.688 C237.32,18.208 237.176,17.776 237.032,17.296 Z M265.208,44.512 L265.256,45.712 C265.256,46.144 263.96,46.192 263.96,45.616 L263.912,45.088 L263.912,42.016 C263.816,40.384 263.72,38.176 263.768,36.592 C263.768,35.632 263.768,34.384 263.72,33.472 L263.72,33.136 C263.72,33.088 263.672,32.992 263.768,31.216 L263.816,30.496 C263.816,30.496 263.768,29.152 263.816,29.008 C263.864,28.288 263.864,27.616 263.816,27.04 L263.864,24.736 C263.816,24.352 263.816,23.728 263.816,23.488 C263.864,22.096 263.864,20.8 263.816,19.456 L263.816,19.024 C263.816,18.88 263.768,18.688 263.768,18.496 C263.72,17.824 263.672,16.816 263.672,16.24 C263.72,14.944 263.72,13.648 263.672,12.256 L263.672,10.528 C263.672,9.904 264.104,9.856 264.392,9.856 L265.4,9.856 C265.976,9.808 266.984,9.76 267.464,9.76 C268.232,9.76 268.52,9.76 268.904,9.808 C269.192,9.856 269.528,9.904 270.104,9.904 L270.392,9.904 C272.024,10 274.52,10.24 275.72,10.72 C276.44,10.96 277.784,11.68 278.312,12.016 C279.608,12.832 280.952,14.752 281.432,16.624 C281.624,17.344 281.96,18.304 281.96,19.072 C281.96,19.84 281.864,20.896 281.672,22 C281.672,22.048 281.528,22.576 281.528,22.624 C281.432,23.344 281.24,23.632 280.952,24.208 C280.712,24.688 280.424,25.216 280.136,25.648 C279.944,25.888 279.464,26.464 279.224,26.656 C278.504,27.232 278.216,27.712 277.352,28.24 C276.344,28.816 275.096,29.2 273.704,29.296 L274.712,30.784 L275.192,31.504 C275.816,32.608 276.2,33.472 276.392,33.712 L276.824,34.432 C276.824,34.432 277.352,35.056 277.784,36.016 C278.504,37.024 278.888,38.032 279.224,38.464 C280.184,39.712 280.76,41.008 281.624,42.304 L282.104,43.072 L282.488,43.696 L283.208,45.04 C283.592,45.568 283.4,45.952 282.968,46 C282.152,46.048 282.008,45.76 281.768,45.328 L281.48,44.848 C281.336,44.608 281.24,44.416 281.096,44.272 L279.56,41.68 L279.464,41.44 L278.552,40 L277.928,38.896 L277.496,38.176 C277.448,38.128 277.352,37.984 277.352,37.936 L276.968,37.456 L276.2,36.16 L274.664,33.472 C274.472,33.088 274.088,32.512 273.704,31.936 C273.56,31.744 273.416,31.456 273.272,31.312 L272.168,29.44 L270.872,29.44 C270.728,29.44 268.904,29.392 268.712,29.392 C267.944,29.392 267.272,29.536 266.312,29.488 C266.072,29.488 265.4,29.536 265.16,29.536 C265.16,29.68 265.112,29.92 265.112,30.112 L265.016,32.224 L265.016,34 C265.064,34.624 265.064,35.44 265.064,36.064 C265.064,36.928 265.016,37.744 265.112,38.656 C265.208,40.192 265.256,41.92 265.208,43.6 L265.208,44.512 Z M265.256,25.12 C265.352,26.08 265.208,27.232 265.304,28.144 C265.784,28.144 267.464,28.192 267.896,28.144 L269.816,28.096 C272.696,28.096 272.936,28.144 274.712,27.712 C275.384,27.52 276.152,27.376 276.68,26.896 C277.112,26.512 277.928,25.936 278.312,25.456 C279.608,23.92 280.472,21.76 280.472,20.032 C280.424,18.832 280.232,17.248 279.848,16.336 C278.456,13.12 277.304,12.928 275.288,12.016 C275.192,11.968 273.08,11.488 272.936,11.44 C272.84,11.44 272.696,11.392 272.6,11.392 L269.816,11.2 C269.096,11.152 268.472,11.104 267.464,11.104 C266.744,11.104 265.832,11.152 265.112,11.2 C265.112,12.784 265.064,17.008 265.112,17.776 C265.112,18.208 265.112,18.64 265.16,19.024 C265.16,19.264 265.208,19.456 265.208,19.648 L265.208,20.224 C265.208,21.616 265.064,22.72 265.256,25.12 Z M313.928,44.272 L314.072,44.752 L314.36,45.616 C314.504,46.144 313.448,46 313.448,46 C313.112,45.952 312.632,44.896 312.44,44.32 L312.344,44.08 L312.2,43.744 C312.104,43.408 311.96,43.024 311.864,42.832 C311.624,42.448 311.48,41.728 311.336,41.248 L310.856,40.192 L310.376,38.944 C310.28,38.464 310.088,37.84 309.896,37.456 C309.608,36.736 309.32,35.92 309.08,34.816 L308.84,33.952 L308.744,33.616 C308.648,33.328 308.504,32.848 308.36,32.56 L307.88,31.12 C307.832,31.072 307.736,30.832 307.736,30.736 L305.24,30.784 C304.52,30.784 303.752,30.736 302.984,30.736 C301.928,30.88 300.104,30.688 300.104,30.688 C298.088,30.688 296.264,30.832 294.92,30.688 L294.344,31.936 C294.296,32.128 294.152,32.416 294.104,32.56 L293.576,33.904 L292.472,36.592 L291.56,38.416 L291.128,39.616 L289.88,42.64 L289.688,43.024 L289.496,43.36 L288.344,45.76 C287.768,46.72 286.712,46.096 286.904,45.52 C286.952,45.424 286.952,45.376 286.952,45.328 L287.144,44.944 L287.336,44.608 L288.488,42.352 L288.92,41.344 C289.304,40.432 289.784,39.28 290.12,38.368 L291.656,34.768 L291.992,33.952 C292.28,33.232 292.616,32.56 292.856,31.936 C292.856,31.936 293.048,31.456 293.096,31.312 L293.432,30.256 L294.728,26.944 L296.264,23.44 L296.84,21.664 L297.032,21.04 L299.192,15.184 C299.672,13.792 300.248,12.112 300.488,11.344 C300.728,10.528 301.064,9.952 301.688,9.952 C302.024,9.952 302.072,10.096 302.216,10.288 L302.312,10.48 C302.504,10.912 302.84,11.68 303.272,13.168 L304.616,16.912 L305.336,18.784 C305.528,19.216 305.672,19.84 305.768,20.224 L305.864,20.512 L306.152,21.472 L306.632,23.008 C306.776,23.536 306.968,24.064 307.16,24.592 L307.736,26.176 L308.456,28.24 L309.704,32.272 L310.424,34.48 C310.568,35.152 310.904,36.112 311.24,36.976 C311.24,37.072 311.384,37.36 311.432,37.456 C311.72,38.128 312.008,38.896 312.152,39.376 L313.928,44.272 Z M303.32,17.296 C303.128,16.336 302.792,15.424 302.36,14.416 L301.928,13.36 L301.592,12.112 C301.4,12.784 301.064,13.6 300.872,14.272 C300.2,16.432 299.384,18.736 298.856,20.272 C298.76,20.56 298.52,21.184 298.52,21.184 L297.272,24.688 C296.792,25.792 296.504,26.224 296.264,26.992 C296.168,27.184 296.024,27.568 296.024,27.664 L295.832,28.192 C295.64,28.624 295.4,29.056 295.256,29.44 L296.024,29.44 C296.216,29.44 298.808,29.488 299,29.488 L301.352,29.44 C302.984,29.488 303.896,29.536 304.76,29.536 C305.48,29.536 306.248,29.44 307.352,29.392 L306.392,26.704 L306.2,25.888 L306.008,25.312 C305.528,23.536 304.616,20.848 303.992,19.216 L303.8,18.688 C303.608,18.208 303.464,17.776 303.32,17.296 Z M342.584,30.592 C342.152,30.208 341.48,29.68 340.808,29.248 C339.8,28.624 338.792,28.24 338.36,28.096 C337.592,27.856 337.256,27.52 336.488,27.232 L335.72,26.944 L333.752,26.176 C331.208,25.216 329,24.112 327.368,22.912 C326.984,22.624 326.552,22.384 326.072,21.856 C325.112,20.704 324.344,19.888 323.96,18.784 C323.576,17.68 323.576,16 323.864,15.28 L324.056,14.752 C324.344,13.984 324.68,13.36 325.16,12.832 C325.256,12.688 326.12,12.064 326.216,11.968 C326.984,11.248 327.176,11.248 328.232,10.72 L328.616,10.528 C330.056,9.856 332.024,9.712 333.992,9.76 C335.192,9.808 336.488,10 337.496,10.288 C338.168,10.48 338.696,10.672 339.128,10.96 L340.04,11.488 C340.328,11.68 340.808,11.92 341.768,12.688 L342.152,12.976 L342.584,13.312 C343.112,13.792 342.392,14.848 341.816,14.416 L341.528,14.176 L341.048,13.84 C340.904,13.792 340.568,13.552 340.472,13.456 C340.184,13.216 339.848,12.928 339.416,12.592 C338.936,12.304 338.12,12.064 337.304,11.728 C336.344,11.344 334.232,11.008 333.512,11.056 C331.64,11.2 331.88,11.104 329.72,11.536 C329.336,11.632 328.904,11.872 328.472,12.112 C327.848,12.4 327.464,12.784 326.936,13.072 C326.696,13.216 326.504,13.456 326.312,13.648 C325.592,14.368 325.016,15.04 325.016,16.192 C325.016,16.768 324.968,17.344 325.112,17.872 C325.16,18.064 325.208,18.256 325.304,18.448 C325.4,18.688 325.784,19.312 325.928,19.552 C326.312,20.224 326.84,20.656 327.656,21.28 C329.672,22.768 330.536,23.344 332.936,24.352 C333.272,24.496 334.664,25.024 334.664,25.024 C335.912,25.456 337.256,26.176 338.552,26.608 C339.32,26.848 340.04,27.376 340.808,27.76 C340.952,27.856 341.96,28.288 343.016,29.44 C343.496,29.92 343.208,31.12 342.584,30.592 Z M374.84,44.272 L374.984,44.752 L375.272,45.616 C375.416,46.144 374.36,46 374.36,46 C374.024,45.952 373.544,44.896 373.352,44.32 L373.256,44.08 L373.112,43.744 C373.016,43.408 372.872,43.024 372.776,42.832 C372.536,42.448 372.392,41.728 372.248,41.248 L371.768,40.192 L371.288,38.944 C371.192,38.464 371,37.84 370.808,37.456 C370.52,36.736 370.232,35.92 369.992,34.816 L369.752,33.952 L369.656,33.616 C369.56,33.328 369.416,32.848 369.272,32.56 L368.792,31.12 C368.744,31.072 368.648,30.832 368.648,30.736 L366.152,30.784 C365.432,30.784 364.664,30.736 363.896,30.736 C362.84,30.88 361.016,30.688 361.016,30.688 C359,30.688 357.176,30.832 355.832,30.688 L355.256,31.936 C355.208,32.128 355.064,32.416 355.016,32.56 L354.488,33.904 L353.384,36.592 L352.472,38.416 L352.04,39.616 L350.792,42.64 L350.6,43.024 L350.408,43.36 L349.256,45.76 C348.68,46.72 347.624,46.096 347.816,45.52 C347.864,45.424 347.864,45.376 347.864,45.328 L348.056,44.944 L348.248,44.608 L349.4,42.352 L349.832,41.344 C350.216,40.432 350.696,39.28 351.032,38.368 L352.568,34.768 L352.904,33.952 C353.192,33.232 353.528,32.56 353.768,31.936 C353.768,31.936 353.96,31.456 354.008,31.312 L354.344,30.256 L355.64,26.944 L357.176,23.44 L357.752,21.664 L357.944,21.04 L360.104,15.184 C360.584,13.792 361.16,12.112 361.4,11.344 C361.64,10.528 361.976,9.952 362.6,9.952 C362.936,9.952 362.984,10.096 363.128,10.288 L363.224,10.48 C363.416,10.912 363.752,11.68 364.184,13.168 L365.528,16.912 L366.248,18.784 C366.44,19.216 366.584,19.84 366.68,20.224 L366.776,20.512 L367.064,21.472 L367.544,23.008 C367.688,23.536 367.88,24.064 368.072,24.592 L368.648,26.176 L369.368,28.24 L370.616,32.272 L371.336,34.48 C371.48,35.152 371.816,36.112 372.152,36.976 C372.152,37.072 372.296,37.36 372.344,37.456 C372.632,38.128 372.92,38.896 373.064,39.376 L374.84,44.272 Z M364.232,17.296 C364.04,16.336 363.704,15.424 363.272,14.416 L362.84,13.36 L362.504,12.112 C362.312,12.784 361.976,13.6 361.784,14.272 C361.112,16.432 360.296,18.736 359.768,20.272 C359.672,20.56 359.432,21.184 359.432,21.184 L358.184,24.688 C357.704,25.792 357.416,26.224 357.176,26.992 C357.08,27.184 356.936,27.568 356.936,27.664 L356.744,28.192 C356.552,28.624 356.312,29.056 356.168,29.44 L356.936,29.44 C357.128,29.44 359.72,29.488 359.912,29.488 L362.264,29.44 C363.896,29.488 364.808,29.536 365.672,29.536 C366.392,29.536 367.16,29.44 368.264,29.392 L367.304,26.704 L367.112,25.888 L366.92,25.312 C366.44,23.536 365.528,20.848 364.904,19.216 L364.712,18.688 C364.52,18.208 364.376,17.776 364.232,17.296 Z M392.456,24.208 L392.456,26.512 L393.176,25.792 C393.56,25.408 394.28,24.688 395.096,24.016 L396.392,22.768 L397.064,21.952 L398.504,20.512 L399.656,19.408 C400.232,18.832 400.76,18.256 401.192,17.68 L402.824,16 L403.448,15.376 L404.504,14.272 L405.08,13.504 L405.944,12.688 L406.472,12.064 L407.24,11.248 L407.912,10.576 C408.392,10.096 408.44,9.952 409.208,10 C409.544,10 409.832,10.384 409.4,10.864 C408.536,11.68 407.624,12.88 407.288,13.216 L405.32,15.232 C404.024,16.816 404.168,16.672 402.92,17.968 C402.92,17.968 401.672,19.072 400.856,20.128 C399.944,21.232 398.888,22.096 397.544,23.392 C397.304,23.632 395.96,25.12 395.768,25.264 C395.72,25.312 395.528,25.456 395.528,25.456 L394.52,26.368 C393.944,26.848 393.512,27.472 393.512,27.472 C393.512,27.52 393.704,27.712 393.944,27.904 C394.568,28.624 395.288,29.248 395.864,29.824 C396.104,30.064 397.112,31.12 397.112,31.12 L397.784,31.744 L398.696,32.8 C400.472,34.48 401.864,35.776 402.536,36.544 L403.256,37.312 L404.552,38.8 L405.848,40 L407.432,41.584 C408.488,42.784 409.64,43.984 410.6,44.944 C411.416,46 410.024,46.288 409.544,45.712 C409.544,45.712 409.208,45.568 408.392,44.704 L407.24,43.408 C406.856,42.928 406.328,42.4 405.656,41.728 L404.84,41.008 C404.216,40.336 403.496,39.568 402.584,38.656 L401.672,37.792 L400.424,36.352 L398.072,33.952 L397.304,33.28 L396.632,32.608 C396.584,32.512 395.864,31.696 395.672,31.504 L394.136,30.112 L393.176,29.056 L392.984,28.864 C392.888,28.72 392.696,28.624 392.456,28.384 L392.408,31.216 C392.408,31.312 392.456,31.6 392.456,32.272 C392.456,34.72 392.456,36.928 392.408,38.992 C392.36,40.912 392.36,43.456 392.36,45.52 C392.36,45.856 392.168,46 391.64,46.048 C391.256,46.096 390.968,45.952 390.968,45.52 C391.016,39.52 391.064,39.472 391.064,39.376 L391.064,38.128 C391.112,37.648 391.064,37.264 391.064,36.448 C391.064,35.008 391.112,34.912 391.112,34.816 L391.064,33.232 C391.016,32.272 391.112,28.912 391.064,27.76 L391.016,26.416 C390.968,25.792 390.968,24.448 391.016,23.872 C391.016,23.584 391.064,22.96 391.064,22.72 L391.064,20.944 C391.064,20.8 391.064,20.32 391.112,19.984 L391.112,11.728 C391.112,11.68 391.064,11.488 391.064,11.056 C391.064,10.336 391.064,10 391.736,10 C392.312,10 392.36,10.48 392.408,10.96 C392.456,11.392 392.456,12.016 392.456,12.4 L392.408,15.28 C392.36,16.672 392.408,16.816 392.408,16.96 C392.408,17.296 392.408,18.208 392.456,18.496 L392.456,23.008 C392.408,23.392 392.456,23.68 392.456,24.208 Z M421.256,10.048 C421.448,9.808 422.12,9.904 422.264,10.048 C422.408,10.192 422.456,10.576 422.456,10.768 L422.456,13.552 C422.408,13.792 422.408,16.096 422.408,16.288 L422.456,19.696 C422.408,20.752 422.36,21.424 422.36,22.192 C422.36,22.96 422.36,23.68 422.408,24.64 C422.456,24.976 422.456,25.6 422.456,26.416 L422.456,30.928 C422.504,31.792 422.504,33.232 422.504,34 L422.456,36.688 C422.456,36.832 422.504,36.928 422.504,37.792 C422.456,38.656 422.408,39.952 422.456,40.816 C422.504,41.728 422.456,44.08 422.408,45.328 C422.408,45.568 422.408,45.856 422.264,45.952 C422.024,46.096 421.352,46.096 421.16,45.904 C421.016,45.712 421.016,45.568 421.016,45.28 L421.064,37.456 L421.064,36.16 C421.064,35.584 421.112,34.96 421.112,34.336 C421.112,32.656 421.064,30.928 421.016,29.728 L421.064,28.432 L421.064,28.144 C421.064,28 421.112,27.856 421.112,27.712 C421.16,27.184 421.16,26.56 421.112,26.224 L421.112,25.984 L421.016,23.632 L421.016,20.272 C421.016,20.128 421.112,18.832 421.112,18.688 L421.064,14.656 L421.112,13.504 L421.112,11.008 C421.112,10.72 421.112,10.192 421.256,10.048 Z" id="YOKO-KARASAKI" fill="#FFFFFF"></path>
                <path d="M58.04,45.712 C58.04,46.144 56.744,46.144 56.744,45.76 L56.744,44.464 C56.792,43.6 56.648,42.16 56.696,40.864 L56.6,38.128 L56.696,35.776 L56.648,33.856 L56.504,32.224 C56.456,32.032 56.36,31.792 56.168,31.456 L55.544,30.496 L54.344,28.432 L53.336,26.608 L51.56,23.92 L50.552,22.288 C50.552,22.288 48.296,18.928 47.144,16.72 L45.08,13.552 C44.408,12.448 43.832,11.584 43.544,11.056 C43.352,10.72 43.304,10.624 43.256,10.48 C43.112,9.904 43.688,9.904 44.312,10.096 C44.6,10.192 44.792,10.624 44.936,10.816 C45.224,11.248 45.32,11.392 45.752,12.16 L47.192,14.464 L47.864,15.472 L48.824,17.008 L50.36,19.504 L53.96,25.168 L56.024,28.624 L57.416,30.976 C57.512,31.168 57.8,31.696 57.8,31.792 C57.896,31.984 57.896,33.568 57.896,33.568 L57.896,36.304 C58.04,37.408 57.896,38.224 57.992,40.24 C58.04,41.92 58.04,44.176 58.04,45.712 Z M80.84,41.056 C80.792,42.016 79.832,41.488 79.64,41.008 C79.544,40.768 79.544,40.432 79.544,40.24 L79.496,38.56 L79.496,36.4 C79.496,35.728 79.496,34.96 79.544,34 L79.448,30.784 C79.448,30.496 79.64,27.616 79.544,24.832 L79.544,20.56 C79.496,19.792 79.4,18.832 79.496,17.584 L79.544,15.088 C79.544,14.896 79.688,14.272 80.216,14.128 C80.696,13.984 80.84,14.08 80.84,14.944 L80.84,16.24 C80.792,16.72 80.792,17.104 80.792,17.536 L80.84,19.264 C80.84,19.312 80.888,22.048 80.888,22.144 L80.792,25.024 L80.84,27.616 C80.744,29.728 80.888,32.896 80.84,33.52 C80.792,34.336 80.888,35.584 80.888,36.4 L80.84,37.648 L80.84,41.056 Z M114.536,40.24 L114.536,45.28 C114.536,45.424 114.536,45.712 114.488,45.808 C114.392,46.096 113.288,46.24 113.192,45.712 C113.144,45.52 113.144,45.328 113.144,45.136 L113.144,44.368 L113.192,38.128 L113.24,37.312 C113.24,35.824 113.192,34.624 113.144,33.472 L113.24,30.592 L113.24,21.28 C113.24,20.752 113.288,20.128 113.288,19.504 L113.288,14.368 C113.288,13.936 113.336,13.552 113.336,13.12 C113.336,12.016 113.336,10.768 113.384,10.336 C113.48,9.904 114.392,9.904 114.536,10.288 C114.584,10.384 114.632,10.528 114.632,10.912 L114.632,13.84 L114.68,15.232 L114.632,17.68 L114.632,21.28 L114.584,30.352 C114.584,31.12 114.536,31.648 114.536,31.984 L114.584,33.04 C114.584,33.376 114.536,33.712 114.536,34.432 L114.536,37.648 C114.536,38.56 114.488,39.424 114.536,40.24 Z M142.52,41.056 C142.472,42.016 141.512,41.488 141.32,41.008 C141.224,40.768 141.224,40.432 141.224,40.24 L141.176,38.56 L141.176,36.4 C141.176,35.728 141.176,34.96 141.224,34 L141.128,30.784 C141.128,30.496 141.32,27.616 141.224,24.832 L141.224,20.56 C141.176,19.792 141.08,18.832 141.176,17.584 L141.224,15.088 C141.224,14.896 141.368,14.272 141.896,14.128 C142.376,13.984 142.52,14.08 142.52,14.944 L142.52,16.24 C142.472,16.72 142.472,17.104 142.472,17.536 L142.52,19.264 C142.52,19.312 142.568,22.048 142.568,22.144 L142.472,25.024 L142.52,27.616 C142.424,29.728 142.568,32.896 142.52,33.52 C142.472,34.336 142.568,35.584 142.568,36.4 L142.52,37.648 L142.52,41.056 Z M197.336,40.24 L197.336,45.28 C197.336,45.424 197.336,45.712 197.288,45.808 C197.192,46.096 196.088,46.24 195.992,45.712 C195.944,45.52 195.944,45.328 195.944,45.136 L195.944,44.368 L195.992,38.128 L196.04,37.312 C196.04,35.824 195.992,34.624 195.944,33.472 L196.04,30.592 L196.04,21.28 C196.04,20.752 196.088,20.128 196.088,19.504 L196.088,14.368 C196.088,13.936 196.136,13.552 196.136,13.12 C196.136,12.016 196.136,10.768 196.184,10.336 C196.28,9.904 197.192,9.904 197.336,10.288 C197.384,10.384 197.432,10.528 197.432,10.912 L197.432,13.84 L197.48,15.232 L197.432,17.68 L197.432,21.28 L197.384,30.352 C197.384,31.12 197.336,31.648 197.336,31.984 L197.384,33.04 C197.384,33.376 197.336,33.712 197.336,34.432 L197.336,37.648 C197.336,38.56 197.288,39.424 197.336,40.24 Z M250.472,46 C250.424,46 250.376,46.048 250.328,46.048 C250.04,46.096 249.464,46.096 249.32,45.664 C249.224,45.328 248.984,44.848 248.984,44.848 C248.984,44.848 248.936,44.752 248.792,44.368 L248.552,43.696 L247.112,39.472 L246.872,38.896 L246.2,37.12 L245.912,36.256 C245.768,35.728 245.72,35.344 245.528,34.864 C245.192,34 244.856,32.992 244.856,32.992 L244.808,32.8 C244.664,32.416 244.568,31.984 244.424,31.552 C243.752,29.536 243.08,27.424 242.312,25.408 L241.496,23.296 C240.824,20.56 239.768,18.448 239.192,16.144 C239.048,15.856 238.952,15.568 238.856,15.28 L238.76,14.896 L237.848,12.304 L237.512,11.248 C237.368,10.864 237.272,10.432 237.272,10.336 C237.176,9.808 238.376,9.808 238.568,10.192 L238.952,11.152 L240.152,14.944 L240.632,16.144 L240.968,17.344 L241.256,18.256 L241.736,19.552 L242.696,22.528 L242.888,23.056 L243.704,25.264 L243.896,25.984 C244.904,28.912 246.152,32.512 247.064,35.392 L247.4,36.496 C247.784,37.6 248.216,38.944 248.648,39.808 L250.328,44.56 C250.328,44.608 250.376,44.8 250.424,44.896 C250.568,45.28 250.808,45.952 250.472,46 Z M262.568,17.776 C262.568,17.872 262.616,17.92 262.616,18.976 C262.616,19.312 262.664,19.6 262.664,19.84 C262.712,20.32 262.712,20.848 262.664,21.28 L262.664,22 C262.664,22.336 262.616,22.672 262.616,23.104 L262.616,25.888 C262.568,26.992 262.568,28.288 262.616,29.296 L262.568,33.136 C262.616,33.76 262.664,34.816 262.664,35.392 C262.616,37.312 262.616,38.032 262.712,39.808 L262.712,40.528 C262.76,41.68 262.76,44.272 262.76,44.752 C262.76,45.232 262.76,45.664 262.712,45.808 C262.616,46.096 261.656,46.096 261.512,45.856 C261.464,45.76 261.464,45.52 261.464,45.184 C261.464,44.848 261.464,44.128 261.416,43.36 L261.416,40.192 C261.416,39.904 261.464,39.568 261.416,39.088 C261.368,38.8 261.368,38.032 261.368,37.792 C261.32,36.496 261.224,34.576 261.224,33.184 C261.272,31.84 261.272,29.776 261.368,26.368 L261.416,25.744 L261.416,24.112 C261.416,23.248 261.368,22.24 261.32,21.28 C261.32,20.128 261.272,18.832 261.32,17.632 C261.32,17.296 261.272,16.96 261.272,16.576 C261.224,16.288 261.272,15.808 261.272,15.472 L261.224,11.728 L261.272,10.48 C261.272,10.432 261.32,10.336 261.32,10.24 C261.368,9.856 262.568,9.856 262.568,10.288 L262.568,17.776 Z M316.76,46 C316.712,46 316.664,46.048 316.616,46.048 C316.328,46.096 315.752,46.096 315.608,45.664 C315.512,45.328 315.272,44.848 315.272,44.848 C315.272,44.848 315.224,44.752 315.08,44.368 L314.84,43.696 L313.4,39.472 L313.16,38.896 L312.488,37.12 L312.2,36.256 C312.056,35.728 312.008,35.344 311.816,34.864 C311.48,34 311.144,32.992 311.144,32.992 L311.096,32.8 C310.952,32.416 310.856,31.984 310.712,31.552 C310.04,29.536 309.368,27.424 308.6,25.408 L307.784,23.296 C307.112,20.56 306.056,18.448 305.48,16.144 C305.336,15.856 305.24,15.568 305.144,15.28 L305.048,14.896 L304.136,12.304 L303.8,11.248 C303.656,10.864 303.56,10.432 303.56,10.336 C303.464,9.808 304.664,9.808 304.856,10.192 L305.24,11.152 L306.44,14.944 L306.92,16.144 L307.256,17.344 L307.544,18.256 L308.024,19.552 L308.984,22.528 L309.176,23.056 L309.992,25.264 L310.184,25.984 C311.192,28.912 312.44,32.512 313.352,35.392 L313.688,36.496 C314.072,37.6 314.504,38.944 314.936,39.808 L316.616,44.56 C316.616,44.608 316.664,44.8 316.712,44.896 C316.856,45.28 317.096,45.952 316.76,46 Z M325.208,24.208 C324.92,23.968 324.44,23.44 323.96,22.768 C323.432,22.048 323.576,20.992 323.912,20.992 C324.2,20.992 324.728,21.856 325.016,22.192 C325.4,22.624 326.12,23.2 326.12,23.2 C327.272,24.208 328.184,24.736 329.144,25.264 C329.384,25.408 329.72,25.6 330.44,25.888 C330.728,25.984 331.016,26.176 331.352,26.32 C332.6,26.896 333.176,27.184 333.176,27.184 L334.616,27.664 C334.952,27.76 335.576,28.096 335.576,28.096 C337.304,28.72 338.168,29.104 339.32,29.68 C339.56,29.824 339.848,29.968 340.088,30.112 C340.664,30.4 341.24,30.688 341.768,31.072 C342.392,31.504 342.824,32.08 343.256,32.656 C343.544,33.088 343.304,34.336 342.728,33.76 C342.44,33.472 342.344,33.232 341.864,32.8 C341.096,32.128 340.952,32.032 339.848,31.408 C338.216,30.544 338.024,30.448 336.728,30.016 L335.336,29.392 L333.368,28.672 C332.888,28.48 331.832,28.096 331.4,27.904 C329.864,27.184 329.336,26.992 328.808,26.656 C326.936,25.456 326.888,25.696 325.208,24.208 Z M377.672,46 C377.624,46 377.576,46.048 377.528,46.048 C377.24,46.096 376.664,46.096 376.52,45.664 C376.424,45.328 376.184,44.848 376.184,44.848 C376.184,44.848 376.136,44.752 375.992,44.368 L375.752,43.696 L374.312,39.472 L374.072,38.896 L373.4,37.12 L373.112,36.256 C372.968,35.728 372.92,35.344 372.728,34.864 C372.392,34 372.056,32.992 372.056,32.992 L372.008,32.8 C371.864,32.416 371.768,31.984 371.624,31.552 C370.952,29.536 370.28,27.424 369.512,25.408 L368.696,23.296 C368.024,20.56 366.968,18.448 366.392,16.144 C366.248,15.856 366.152,15.568 366.056,15.28 L365.96,14.896 L365.048,12.304 L364.712,11.248 C364.568,10.864 364.472,10.432 364.472,10.336 C364.376,9.808 365.576,9.808 365.768,10.192 L366.152,11.152 L367.352,14.944 L367.832,16.144 L368.168,17.344 L368.456,18.256 L368.936,19.552 L369.896,22.528 L370.088,23.056 L370.904,25.264 L371.096,25.984 C372.104,28.912 373.352,32.512 374.264,35.392 L374.6,36.496 C374.984,37.6 375.416,38.944 375.848,39.808 L377.528,44.56 C377.528,44.608 377.576,44.8 377.624,44.896 C377.768,45.28 378.008,45.952 377.672,46 Z M389.864,40.24 L389.864,45.28 C389.864,45.424 389.864,45.712 389.816,45.808 C389.72,46.096 388.616,46.24 388.52,45.712 C388.472,45.52 388.472,45.328 388.472,45.136 L388.472,44.368 L388.52,38.128 L388.568,37.312 C388.568,35.824 388.52,34.624 388.472,33.472 L388.568,30.592 L388.568,21.28 C388.568,20.752 388.616,20.128 388.616,19.504 L388.616,14.368 C388.616,13.936 388.664,13.552 388.664,13.12 C388.664,12.016 388.664,10.768 388.712,10.336 C388.808,9.904 389.72,9.904 389.864,10.288 C389.912,10.384 389.96,10.528 389.96,10.912 L389.96,13.84 L390.008,15.232 L389.96,17.68 L389.96,21.28 L389.912,30.352 C389.912,31.12 389.864,31.648 389.864,31.984 L389.912,33.04 C389.912,33.376 389.864,33.712 389.864,34.432 L389.864,37.648 C389.864,38.56 389.816,39.424 389.864,40.24 Z M419.96,42.784 C419.912,44.032 419.96,45.424 419.96,45.424 C419.96,45.904 419.768,46.048 419.576,46.048 C419.576,46.048 418.856,46.144 418.712,45.904 C418.664,45.808 418.616,45.616 418.616,45.28 L418.616,37.312 C418.616,35.824 418.568,34.624 418.52,33.472 L418.568,30.592 C418.568,29.824 418.616,29.2 418.616,28.72 C418.616,28.72 418.664,24.16 418.52,22.384 C418.52,22.384 418.664,16.768 418.52,15.616 C418.52,13.552 418.52,10.48 418.616,10.24 C418.808,9.808 419.72,9.952 419.816,10.24 C419.864,10.384 419.912,10.624 419.864,10.816 L419.864,12.352 C419.864,12.544 419.816,13.408 419.816,13.552 L419.864,15.664 C419.96,17.44 419.864,19.456 419.864,19.456 C419.912,19.984 419.864,21.04 419.864,21.04 C419.864,21.088 419.912,23.056 419.912,23.152 C419.912,24.16 419.864,25.504 419.864,25.504 C420.008,27.376 419.96,31.264 419.96,31.936 L419.96,33.472 C419.96,34 420.008,39.808 420.008,40.288 C420.008,40.864 419.96,41.392 419.96,41.872 L419.96,42.784 Z" id="YOKO-KARASAKI" fill="#98D9EB"></path>
                <path d="M40.376,10.624 C40.184,10.288 40.376,9.856 41.192,10.048 C41.528,10.144 41.672,10.384 41.864,10.72 L42.392,11.44 L42.872,12.208 L43.16,12.64 C43.688,13.552 43.832,13.696 44.072,13.984 C44.696,15.088 44.84,15.28 45.464,16.144 L47.96,20.32 L49.208,22.336 L50.264,24.016 C50.696,24.736 51.224,25.456 51.656,26.176 L54.632,31.12 C54.968,31.792 55.304,32.464 55.352,32.8 L55.4,34.096 L55.496,35.248 L55.496,35.824 C55.496,36.016 55.544,36.16 55.544,36.352 L55.496,37.696 C55.496,37.84 55.544,37.984 55.544,38.128 C55.544,38.272 55.448,39.712 55.544,41.344 L55.544,41.536 C55.592,41.872 55.496,44.176 55.592,44.704 L55.592,45.616 C55.448,46.192 54.248,46.096 54.248,45.616 C54.248,44.896 54.2,44.368 54.2,43.984 L54.248,40.912 C54.2,39.568 54.152,38.416 54.152,38.224 L54.152,36.832 C54.152,36.64 54.056,34.336 54.008,34.096 L53.96,33.04 C53.96,32.896 53.816,32.368 53.528,31.936 L53.144,31.216 L52.808,30.64 L52.136,29.392 C51.896,28.96 51.224,28 50.936,27.568 L50.792,27.376 L48.536,23.92 L47.48,22.096 L47.144,21.472 C46.52,20.512 45.896,19.456 45.512,18.976 C44.888,18.064 44.408,17.104 43.976,16.384 L43.736,15.952 C43.544,15.616 43.208,15.136 42.824,14.608 L42.392,13.936 L41.816,13.072 L40.664,11.2 C40.52,10.96 40.52,10.864 40.376,10.624 Z M78.344,38.32 C78.344,38.32 78.248,38.944 77.816,38.848 C77.144,38.704 77.192,37.84 77.096,36.64 L77.144,35.248 C77.096,34.288 77.048,31.936 77.048,30.496 C77.048,29.92 77.048,29.2 77.096,28.816 C77.096,28.624 77.048,28.288 77.048,28.048 L77,24.832 C77,24.4 77,23.776 77.048,23.248 C77.048,21.664 77.096,18.736 77.144,18.256 C77.192,17.44 77.48,17.008 77.912,16.96 C78.392,16.912 78.344,17.248 78.392,18.064 L78.344,19.12 C78.344,19.264 78.296,19.408 78.296,19.504 L78.296,20.416 C78.344,21.088 78.344,22.336 78.344,23.104 C78.344,24.4 78.344,25.6 78.296,26.224 L78.296,30.4 C78.344,30.736 78.344,31.216 78.344,31.36 L78.344,38.32 Z M110.744,10.336 C110.888,9.856 111.896,9.904 111.992,10.336 C112.04,10.528 112.088,10.912 112.088,11.152 C112.088,11.68 112.088,13.84 112.136,14.56 L112.136,15.424 C112.136,15.52 112.088,16.192 112.088,16.24 L112.088,17.776 L112.136,18.448 L112.136,20.224 C112.136,20.512 112.184,20.8 112.184,21.04 C112.184,21.376 112.136,21.664 112.136,22 L112.136,24.256 C112.136,25.072 112.088,25.888 112.136,26.608 C112.184,26.944 112.136,30.592 112.04,32.8 L112.04,33.376 C112.04,33.616 112.088,33.808 112.088,33.952 L112.088,37.6 L112.136,38.944 C112.04,39.712 111.992,40.048 112.04,40.864 L112.04,45.712 C112.04,46.144 110.6,46.24 110.648,45.616 C110.648,45.616 110.648,43.792 110.744,41.968 C110.744,41.632 110.696,41.344 110.744,39.904 C110.744,39.52 110.792,35.392 110.744,34.528 L110.696,33.232 L110.696,30.784 L110.744,25.552 L110.744,24.976 C110.744,24.688 110.792,24.304 110.792,23.92 L110.792,23.056 C110.792,22.768 110.84,22.432 110.84,22.144 C110.84,21.808 110.792,21.52 110.792,21.232 L110.792,20.464 C110.744,19.936 110.744,19.264 110.744,18.592 C110.744,17.872 110.744,17.104 110.696,16.384 L110.696,14.656 L110.744,13.504 L110.744,13.12 C110.744,12.928 110.696,12.736 110.696,12.544 L110.696,11.104 C110.696,10.816 110.696,10.528 110.744,10.336 Z M140.024,38.32 C140.024,38.32 139.928,38.944 139.496,38.848 C138.824,38.704 138.872,37.84 138.776,36.64 L138.824,35.248 C138.776,34.288 138.728,31.936 138.728,30.496 C138.728,29.92 138.728,29.2 138.776,28.816 C138.776,28.624 138.728,28.288 138.728,28.048 L138.68,24.832 C138.68,24.4 138.68,23.776 138.728,23.248 C138.728,21.664 138.776,18.736 138.824,18.256 C138.872,17.44 139.16,17.008 139.592,16.96 C140.072,16.912 140.024,17.248 140.072,18.064 L140.024,19.12 C140.024,19.264 139.976,19.408 139.976,19.504 L139.976,20.416 C140.024,21.088 140.024,22.336 140.024,23.104 C140.024,24.4 140.024,25.6 139.976,26.224 L139.976,30.4 C140.024,30.736 140.024,31.216 140.024,31.36 L140.024,38.32 Z M193.544,10.336 C193.688,9.856 194.696,9.904 194.792,10.336 C194.84,10.528 194.888,10.912 194.888,11.152 C194.888,11.68 194.888,13.84 194.936,14.56 L194.936,15.424 C194.936,15.52 194.888,16.192 194.888,16.24 L194.888,17.776 L194.936,18.448 L194.936,20.224 C194.936,20.512 194.984,20.8 194.984,21.04 C194.984,21.376 194.936,21.664 194.936,22 L194.936,24.256 C194.936,25.072 194.888,25.888 194.936,26.608 C194.984,26.944 194.936,30.592 194.84,32.8 L194.84,33.376 C194.84,33.616 194.888,33.808 194.888,33.952 L194.888,37.6 L194.936,38.944 C194.84,39.712 194.792,40.048 194.84,40.864 L194.84,45.712 C194.84,46.144 193.4,46.24 193.448,45.616 C193.448,45.616 193.448,43.792 193.544,41.968 C193.544,41.632 193.496,41.344 193.544,39.904 C193.544,39.52 193.592,35.392 193.544,34.528 L193.496,33.232 L193.496,30.784 L193.544,25.552 L193.544,24.976 C193.544,24.688 193.592,24.304 193.592,23.92 L193.592,23.056 C193.592,22.768 193.64,22.432 193.64,22.144 C193.64,21.808 193.592,21.52 193.592,21.232 L193.592,20.464 C193.544,19.936 193.544,19.264 193.544,18.592 C193.544,17.872 193.544,17.104 193.496,16.384 L193.496,14.656 L193.544,13.504 L193.544,13.12 C193.544,12.928 193.496,12.736 193.496,12.544 L193.496,11.104 C193.496,10.816 193.496,10.528 193.544,10.336 Z M253.352,45.568 C253.496,46.096 252.2,46.144 252.056,45.664 L251.912,45.472 L251.672,44.752 C251.048,43.36 250.856,42.64 250.856,42.64 C250.856,42.64 250.472,41.2 250.04,40.288 C249.464,39.04 249.176,37.792 249.176,37.792 L248.216,35.2 L247.4,32.8 C247.256,32.416 247.16,31.984 247.016,31.552 C246.344,29.536 245.672,27.904 244.904,25.408 L244.136,23.296 L243.416,20.992 C243.272,20.704 243.128,20.416 243.032,20.128 L241.304,14.896 C240.872,13.888 240.392,12.304 240.056,11.248 L239.768,10.432 C239.576,9.808 240.824,9.808 241.016,10.24 C241.064,10.384 241.256,10.72 241.4,11.152 L242.744,14.944 L243.176,16.144 L243.656,17.344 L243.896,18.256 L244.28,19.552 L245.288,22.528 L245.48,23.056 L246.488,25.984 L246.728,26.752 C246.968,27.52 247.256,28.288 247.544,29.104 C247.544,29.104 248.6,31.984 248.792,32.848 C248.936,33.568 249.656,35.2 249.656,35.2 C250.04,36.304 251.24,39.808 251.24,39.808 L252.968,44.56 C253.112,44.848 253.256,45.232 253.352,45.568 Z M260.024,13.312 C260.024,13.408 260.072,13.504 260.072,15.328 C260.072,15.424 260.12,15.472 260.072,16.768 C260.072,16.864 260.12,16.96 260.12,17.008 C260.12,17.2 260.168,17.392 260.168,17.584 C260.216,18.064 260.216,18.64 260.216,19.12 L260.216,19.84 C260.216,20.128 260.168,20.416 260.168,20.8 L260.168,23.488 C260.168,24.592 260.12,28.288 260.072,29.296 C260.024,29.872 260.024,30.688 260.024,31.216 C260.024,31.6 260.024,32.128 260.072,32.608 C260.072,32.704 260.072,32.8 260.12,34.096 L260.168,36.352 C260.12,38.176 260.168,39.952 260.264,41.728 L260.264,43.744 C260.312,44.416 260.264,44.656 260.264,45.136 L260.264,45.712 C260.264,46.144 258.968,46.192 258.968,45.712 C258.968,45.712 258.92,45.184 258.92,44.848 L258.92,44.176 C258.92,44.08 258.872,42.448 258.872,42.352 C258.92,41.152 258.92,41.2 258.872,40.048 C258.824,39.76 258.824,38.992 258.824,38.752 C258.776,38.272 258.776,37.552 258.824,37.12 L258.824,34.144 C258.824,33.664 258.776,33.184 258.776,32.704 L258.824,31.264 C258.776,30.592 258.776,29.44 258.776,28.816 C258.776,28 258.776,27.232 258.872,26.368 L258.872,25.84 C258.872,25.456 258.824,24.928 258.824,24.448 L258.824,22.768 L258.776,21.712 C258.776,21.28 258.872,20.896 258.872,20.608 L258.872,19.888 C258.92,19.072 258.92,18.352 258.872,17.104 L258.824,14.944 L258.776,11.248 L258.776,11.008 C258.728,10.816 258.776,10.432 258.824,10.288 C258.968,9.808 260.072,9.856 260.072,10.288 L260.024,13.312 Z M319.64,45.568 C319.784,46.096 318.488,46.144 318.344,45.664 L318.2,45.472 L317.96,44.752 C317.336,43.36 317.144,42.64 317.144,42.64 C317.144,42.64 316.76,41.2 316.328,40.288 C315.752,39.04 315.464,37.792 315.464,37.792 L314.504,35.2 L313.688,32.8 C313.544,32.416 313.448,31.984 313.304,31.552 C312.632,29.536 311.96,27.904 311.192,25.408 L310.424,23.296 L309.704,20.992 C309.56,20.704 309.416,20.416 309.32,20.128 L307.592,14.896 C307.16,13.888 306.68,12.304 306.344,11.248 L306.056,10.432 C305.864,9.808 307.112,9.808 307.304,10.24 C307.352,10.384 307.544,10.72 307.688,11.152 L309.032,14.944 L309.464,16.144 L309.944,17.344 L310.184,18.256 L310.568,19.552 L311.576,22.528 L311.768,23.056 L312.776,25.984 L313.016,26.752 C313.256,27.52 313.544,28.288 313.832,29.104 C313.832,29.104 314.888,31.984 315.08,32.848 C315.224,33.568 315.944,35.2 315.944,35.2 C316.328,36.304 317.528,39.808 317.528,39.808 L319.256,44.56 C319.4,44.848 319.544,45.232 319.64,45.568 Z M342.152,34.48 C343.16,35.488 343.688,37.168 343.592,39.76 C343.592,40.336 343.4,40.912 343.208,41.488 C342.92,42.304 342.488,43.072 342.056,43.6 C341.336,44.416 340.136,44.992 339.032,45.568 C337.928,46.144 336.92,46.048 335.048,46.24 C333.512,46.384 331.4,46.144 330.2,45.568 L329.288,45.136 C328.568,44.8 328.088,44.656 327.608,44.368 C326.888,43.888 324.92,42.256 324.92,42.256 C324.536,41.872 324.2,41.44 323.96,41.152 C323.912,41.104 323.768,40.96 323.768,40.912 L323.576,40.672 C323.24,40 324.2,39.52 324.584,39.904 L324.968,40.288 L325.4,40.768 C325.4,40.768 325.736,41.2 326.36,41.776 C326.504,41.92 326.696,42.016 326.888,42.16 C327.08,42.304 327.416,42.64 327.608,42.784 C328.28,43.264 329.096,43.6 329.768,43.888 C330.152,44.08 330.68,44.368 331.4,44.608 C332.312,44.944 333.128,45.04 333.848,44.992 C334.856,44.944 336.584,44.944 338.12,44.512 C339.128,44.224 340.088,43.696 340.664,43.12 C341.048,42.736 341.288,42.4 341.576,41.776 C341.72,41.488 342.008,41.008 342.104,40.72 C342.248,40.288 342.296,39.808 342.296,39.328 C342.296,38.848 342.296,37.888 342.104,37.264 C341.768,36.16 341.288,35.344 340.472,34.576 C339.512,33.712 338.6,33.328 337.352,32.8 C336.152,32.464 335.768,32.368 334.952,31.936 C333.944,31.456 333.8,31.408 332.984,31.12 L331.832,30.736 L330.488,30.256 L329.288,29.728 C327.32,28.816 327.608,29.104 325.88,27.904 L325.688,27.76 C325.4,27.568 324.488,26.752 324.152,26.32 C323.576,25.648 323.624,24.592 324.056,24.64 C324.344,24.688 325.064,25.552 325.592,25.984 C326.072,26.368 326.744,26.8 327.464,27.28 C328.472,27.952 329,28.096 329.624,28.384 C329.912,28.528 330.248,28.672 330.68,28.816 C331.352,29.008 332.84,29.728 333.8,30.112 C333.8,30.112 334.472,30.448 335.672,30.784 L337.4,31.456 C338.936,31.84 340.712,32.896 342.152,34.48 Z M380.552,45.568 C380.696,46.096 379.4,46.144 379.256,45.664 L379.112,45.472 L378.872,44.752 C378.248,43.36 378.056,42.64 378.056,42.64 C378.056,42.64 377.672,41.2 377.24,40.288 C376.664,39.04 376.376,37.792 376.376,37.792 L375.416,35.2 L374.6,32.8 C374.456,32.416 374.36,31.984 374.216,31.552 C373.544,29.536 372.872,27.904 372.104,25.408 L371.336,23.296 L370.616,20.992 C370.472,20.704 370.328,20.416 370.232,20.128 L368.504,14.896 C368.072,13.888 367.592,12.304 367.256,11.248 L366.968,10.432 C366.776,9.808 368.024,9.808 368.216,10.24 C368.264,10.384 368.456,10.72 368.6,11.152 L369.944,14.944 L370.376,16.144 L370.856,17.344 L371.096,18.256 L371.48,19.552 L372.488,22.528 L372.68,23.056 L373.688,25.984 L373.928,26.752 C374.168,27.52 374.456,28.288 374.744,29.104 C374.744,29.104 375.8,31.984 375.992,32.848 C376.136,33.568 376.856,35.2 376.856,35.2 C377.24,36.304 378.44,39.808 378.44,39.808 L380.168,44.56 C380.312,44.848 380.456,45.232 380.552,45.568 Z M386.072,10.336 C386.216,9.856 387.224,9.904 387.32,10.336 C387.368,10.528 387.416,10.912 387.416,11.152 C387.416,11.68 387.416,13.84 387.464,14.56 L387.464,15.424 C387.464,15.52 387.416,16.192 387.416,16.24 L387.416,17.776 L387.464,18.448 L387.464,20.224 C387.464,20.512 387.512,20.8 387.512,21.04 C387.512,21.376 387.464,21.664 387.464,22 L387.464,24.256 C387.464,25.072 387.416,25.888 387.464,26.608 C387.512,26.944 387.464,30.592 387.368,32.8 L387.368,33.376 C387.368,33.616 387.416,33.808 387.416,33.952 L387.416,37.6 L387.464,38.944 C387.368,39.712 387.32,40.048 387.368,40.864 L387.368,45.712 C387.368,46.144 385.928,46.24 385.976,45.616 C385.976,45.616 385.976,43.792 386.072,41.968 C386.072,41.632 386.024,41.344 386.072,39.904 C386.072,39.52 386.12,35.392 386.072,34.528 L386.024,33.232 L386.024,30.784 L386.072,25.552 L386.072,24.976 C386.072,24.688 386.12,24.304 386.12,23.92 L386.12,23.056 C386.12,22.768 386.168,22.432 386.168,22.144 C386.168,21.808 386.12,21.52 386.12,21.232 L386.12,20.464 C386.072,19.936 386.072,19.264 386.072,18.592 C386.072,17.872 386.072,17.104 386.024,16.384 L386.024,14.656 L386.072,13.504 L386.072,13.12 C386.072,12.928 386.024,12.736 386.024,12.544 L386.024,11.104 C386.024,10.816 386.024,10.528 386.072,10.336 Z M416.168,10.096 C416.36,9.904 416.888,9.808 417.176,10.096 C417.272,10.192 417.368,10.816 417.368,11.056 C417.368,11.584 417.368,12.88 417.416,13.6 C417.416,13.696 417.416,13.792 417.416,13.984 L417.416,16.816 L417.464,17.488 L417.416,18.016 C417.416,18.112 417.416,18.208 417.416,18.352 C417.464,18.784 417.464,19.552 417.464,19.744 C417.464,20.608 417.464,21.712 417.416,22.912 C417.368,24.64 417.32,26.416 417.368,27.568 C417.416,28.144 417.416,29.584 417.416,30.832 L417.416,33.376 C417.416,33.568 417.416,35.344 417.416,35.536 L417.464,37.6 C417.464,37.744 417.512,37.84 417.464,39.28 C417.416,39.76 417.416,40.336 417.464,40.864 L417.464,45.424 C417.464,45.856 417.368,45.904 417.176,46 C416.984,46.096 416.36,46.192 416.216,45.856 C416.168,45.76 416.168,45.232 416.168,44.944 C416.168,44.896 416.12,44.224 416.12,44.128 L416.168,38.32 L416.168,36.256 C416.168,35.872 416.216,35.392 416.168,34.528 L416.12,33.232 L416.12,32.176 C416.12,31.936 416.072,31.696 416.072,31.504 L416.072,30.784 L416.024,26.512 L416.024,25.84 C416.024,25.456 416.072,24.976 416.072,24.448 C416.12,23.008 416.168,21.376 416.12,20.704 L416.12,15.424 C416.072,14.848 416.072,14.512 416.072,13.696 L416.072,12.592 C416.072,12.448 416.072,11.968 416.072,11.872 L416.024,11.008 C416.024,10.72 416.024,10.24 416.168,10.096 Z" id="YOKO-KARASAKI" fill="#42AAC7"></path>
            </g>
            <g id="WORKS" transform="translate(48.000000, 408.000000)"></g>
        </g>
    </g>
</svg>