<?xml version="1.0" encoding="UTF-8"?>
<svg width="41px" height="40px" viewBox="0 0 41 40" version="1.1" xmlns="http://www.w3.org/2000/svg" xmlns:xlink="http://www.w3.org/1999/xlink">
    <!-- Generator: Sketch 51.2 (57519) - http://www.bohemiancoding.com/sketch -->
    <title>github-brands</title>
    <desc>Created with Sketch.</desc>
    <defs></defs>
    <g id="Welcome" stroke="none" stroke-width="1" fill="none" fill-rule="evenodd">
        <g id="Desktop" transform="translate(-409.000000, -275.000000)" fill-rule="nonzero" stroke="#FFFFFF" stroke-width="0.8">
            <g id="ICON" transform="translate(410.000000, 275.000000)">
                <g id="github-brands" transform="translate(0.000000, 1.000000)">
                    <path d="M19.4221488,0 C8.41785124,0 0,8.35438017 0,19.3586777 C0,28.1573554 5.53785124,35.6866116 13.4479339,38.3365289 C14.4634711,38.5190083 14.8204959,37.8922314 14.8204959,37.3765289 C14.8204959,36.8846281 14.7966942,34.1712397 14.7966942,32.505124 C14.7966942,32.505124 9.24297521,33.6952066 8.07669421,30.1408264 C8.07669421,30.1408264 7.1722314,27.8320661 5.87107438,27.2370248 C5.87107438,27.2370248 4.05421488,25.991405 5.99801653,26.0152066 C5.99801653,26.0152066 7.97355372,26.1738843 9.06049587,28.0621488 C10.7980165,31.1246281 13.7097521,30.2439669 14.8442975,29.7203306 C15.0267769,28.4509091 15.5424793,27.5702479 16.113719,27.0466116 C11.6786777,26.5547107 7.20396694,25.9120661 7.20396694,18.2796694 C7.20396694,16.0978512 7.80694215,15.0029752 9.07636364,13.6066116 C8.87008264,13.0909091 8.19570248,10.9646281 9.28264463,8.21950413 C10.9408264,7.70380165 14.7570248,10.3616529 14.7570248,10.3616529 C16.3438017,9.91735537 18.0495868,9.68727273 19.7395041,9.68727273 C21.4294215,9.68727273 23.1352066,9.91735537 24.7219835,10.3616529 C24.7219835,10.3616529 28.5381818,7.69586777 30.1963636,8.21950413 C31.2833058,10.972562 30.6089256,13.0909091 30.4026446,13.6066116 C31.6720661,15.0109091 32.4495868,16.1057851 32.4495868,18.2796694 C32.4495868,25.9358678 27.7765289,26.5467769 23.3414876,27.0466116 C24.071405,27.6733884 24.6902479,28.8634711 24.6902479,30.7279339 C24.6902479,33.4016529 24.6664463,36.7100826 24.6664463,37.3606612 C24.6664463,37.8763636 25.031405,38.5031405 26.0390083,38.3206612 C33.9728926,35.6866116 39.3520661,28.1573554 39.3520661,19.3586777 C39.3520661,8.35438017 30.4264463,0 19.4221488,0 Z" id="Shape"></path>
                </g>
            </g>
        </g>
    </g>
</svg>