<?xml version="1.0" encoding="UTF-8"?>
<svg width="42px" height="42px" viewBox="0 0 42 42" version="1.1" xmlns="http://www.w3.org/2000/svg" xmlns:xlink="http://www.w3.org/1999/xlink">
    <!-- Generator: Sketch 51.2 (57519) - http://www.bohemiancoding.com/sketch -->
    <title>pencil-alt-solid</title>
    <desc>Created with Sketch.</desc>
    <defs></defs>
    <g id="Welcome" stroke="none" stroke-width="1" fill="none" fill-rule="evenodd">
        <g id="Desktop" transform="translate(-497.000000, -274.000000)" fill-rule="nonzero" stroke="#FFFFFF" stroke-width="0.8">
            <g id="ICON" transform="translate(410.000000, 275.000000)">
                <g id="pencil-alt-solid" transform="translate(88.000000, 0.000000)">
                    <path d="M38.8226121,11.079922 L35.2280702,14.6744639 C34.8615984,15.0409357 34.2690058,15.0409357 33.9025341,14.6744639 L25.2475634,6.01949318 C24.8810916,5.65302144 24.8810916,5.06042885 25.2475634,4.69395712 L28.8421053,1.0994152 C30.3001949,-0.358674464 32.6705653,-0.358674464 34.1364522,1.0994152 L38.8226121,5.78557505 C40.288499,7.24366472 40.288499,9.61403509 38.8226121,11.079922 Z M22.1598441,7.78167641 L1.68421053,28.2573099 L0.0311890838,37.7309942 C-0.194931774,39.0097466 0.920077973,40.1169591 2.19883041,39.8986355 L11.6725146,38.2378168 L32.1481481,17.7621832 C32.5146199,17.3957115 32.5146199,16.8031189 32.1481481,16.4366472 L23.4931774,7.78167641 C23.1189084,7.41520468 22.5263158,7.41520468 22.1598441,7.78167641 Z M9.67641326,26.502924 C9.24756335,26.0740741 9.24756335,25.3879142 9.67641326,24.9590643 L21.6842105,12.9512671 C22.1130604,12.5224172 22.7992203,12.5224172 23.2280702,12.9512671 C23.6569201,13.380117 23.6569201,14.0662768 23.2280702,14.4951267 L11.2202729,26.502924 C10.791423,26.9317739 10.1052632,26.9317739 9.67641326,26.502924 Z M6.86159844,33.0604288 L10.6042885,33.0604288 L10.6042885,35.8908382 L5.57504873,36.7719298 L3.15009747,34.3469786 L4.03118908,29.3177388 L6.86159844,29.3177388 L6.86159844,33.0604288 Z" id="Shape"></path>
                </g>
            </g>
        </g>
    </g>
</svg>